<?xml version="1.0" encoding="utf-8"?>
<!-- Generator: Adobe Illustrator 24.0.2, SVG Export Plug-In . SVG Version: 6.00 Build 0)  -->
<svg version="1.1" id="Capa_1" xmlns="http://www.w3.org/2000/svg" xmlns:xlink="http://www.w3.org/1999/xlink" x="0px" y="0px"
	 viewBox="0 0 500 90" style="enable-background:new 0 0 500 90;" xml:space="preserve">
<style type="text/css">
	.st0{fill:#D0D0D0;}
	.st1{fill:#AFCA0B;}
</style>
<g>
	<g>
		<path class="st1" d="M338.12,30.06v-8.51h-31.38v8.51h11.33v25.11c0,6.55,5.33,11.88,11.88,11.88h3.04v-8.51h-3.04
			c-1.86,0-3.37-1.51-3.37-3.37V30.06H338.12z"/>
		<g>
			<path class="st1" d="M481.46,21.59c1.1,0,2.12,0.18,3.06,0.54c0.94,0.36,1.75,0.87,2.44,1.54c0.69,0.67,1.23,1.48,1.62,2.43
				c0.39,0.95,0.58,2.02,0.58,3.2c0,1.18-0.19,2.25-0.58,3.2c-0.39,0.95-0.93,1.76-1.62,2.43c-0.69,0.67-1.5,1.18-2.44,1.54
				c-0.94,0.36-1.96,0.54-3.06,0.54c-1.1,0-2.12-0.18-3.07-0.54c-0.94-0.36-1.76-0.87-2.45-1.54c-0.69-0.67-1.23-1.48-1.62-2.43
				c-0.39-0.95-0.59-2.02-0.59-3.2c0-1.18,0.2-2.25,0.59-3.2c0.39-0.95,0.93-1.76,1.62-2.43s1.5-1.18,2.45-1.54
				C479.34,21.77,480.36,21.59,481.46,21.59z M481.46,35.95c0.88,0,1.71-0.13,2.49-0.4c0.78-0.27,1.46-0.68,2.03-1.23
				c0.58-0.55,1.03-1.24,1.37-2.08c0.34-0.83,0.51-1.82,0.51-2.95c0-1.13-0.17-2.11-0.51-2.95c-0.34-0.83-0.79-1.53-1.37-2.08
				c-0.58-0.55-1.25-0.96-2.03-1.23c-0.78-0.27-1.61-0.4-2.49-0.4c-0.89,0-1.72,0.13-2.5,0.4c-0.78,0.27-1.46,0.68-2.03,1.23
				c-0.58,0.55-1.03,1.24-1.37,2.08c-0.33,0.83-0.5,1.82-0.5,2.95c0,1.13,0.17,2.11,0.5,2.95c0.33,0.83,0.79,1.53,1.37,2.08
				c0.58,0.55,1.25,0.96,2.03,1.23C479.74,35.82,480.58,35.95,481.46,35.95z M478.38,25.18h3.28c0.44,0,0.86,0.05,1.24,0.15
				c0.39,0.1,0.73,0.25,1.01,0.46c0.29,0.21,0.51,0.47,0.68,0.79c0.17,0.32,0.25,0.7,0.25,1.14c0,0.25-0.05,0.48-0.14,0.69
				s-0.23,0.41-0.39,0.58c-0.17,0.17-0.36,0.32-0.58,0.46c-0.22,0.13-0.46,0.24-0.71,0.33l1.97,3.36h-1.37l-1.82-3.13h-2.08v3.13
				h-1.34V25.18z M479.72,26.26v2.67h2.42c0.15-0.02,0.3-0.06,0.46-0.11c0.16-0.05,0.31-0.12,0.45-0.21
				c0.14-0.09,0.25-0.21,0.34-0.35c0.09-0.14,0.13-0.32,0.13-0.53c0-0.53-0.18-0.9-0.53-1.12c-0.35-0.22-0.86-0.33-1.53-0.33H479.72
				z"/>
		</g>
		<path class="st1" d="M410.59,67.05h-8.51v-19.7c0-3.55-2.89-6.44-6.44-6.44c-3.55,0-6.44,2.89-6.44,6.44v19.7h-8.51v-19.7
			c0-8.25,6.71-14.95,14.95-14.95c8.25,0,14.96,6.71,14.96,14.95V67.05z"/>
		<path class="st1" d="M373.81,51.77h-27.17c0.39,2.4,1.44,4.3,3.14,5.72c1.7,1.41,3.88,2.12,6.52,2.12c3.16,0,5.88-1.1,8.15-3.32
			l7.13,3.35c-1.78,2.52-3.9,4.38-6.38,5.59c-2.48,1.21-5.42,1.81-8.83,1.81c-5.29,0-9.59-1.67-12.92-5
			c-3.33-3.33-4.99-7.51-4.99-12.53c0-5.14,1.66-9.41,4.97-12.81c3.31-3.4,7.47-5.1,12.47-5.1c5.31,0,9.63,1.7,12.95,5.1
			c3.32,3.4,4.99,7.89,4.99,13.46L373.81,51.77z M365.35,45.11c-0.56-1.88-1.66-3.41-3.31-4.59c-1.65-1.18-3.55-1.77-5.73-1.77
			c-2.36,0-4.43,0.66-6.21,1.98c-1.12,0.83-2.15,2.28-3.1,4.37H365.35z"/>
		<path class="st1" d="M428.73,33.79v-12.2h-8.51v12.2h-6.58l0,0v6.66v0h6.58v14.71c0,6.55,5.33,11.88,11.88,11.88h3.21v-8.51h-3.21
			c-1.86,0-3.37-1.51-3.37-3.37V40.46h6.58v0v-6.66l0,0H428.73z"/>
		<path class="st1" d="M456.02,31.57c-9.78,0-17.74,7.96-17.74,17.74c0,9.78,7.96,17.74,17.74,17.74c9.78,0,17.74-7.96,17.74-17.74
			C473.76,39.52,465.8,31.57,456.02,31.57z M455.6,55.01c-0.53-0.46-1.19-0.73-1.89-0.79l-7.92-0.62l15.76-15.54l0.08,22.13
			L455.6,55.01z"/>
	</g>
	<g>
		<path class="st0" d="M40.2,58.25H23.76l-3.08,9.51h-9.84l15.7-45.54h10.88l15.74,45.54h-9.84L40.2,58.25z M26.14,50.88h11.69
			l-5.86-17.95L26.14,50.88z"/>
		<path class="st0" d="M104.02,22.22h10.31l-9.74,45.54H93.74l-8.71-30.94l-8.84,30.94H65.41l-9.84-45.54h10.45l5.52,32.98
			l9.21-32.98h8.5l9.14,33.05L104.02,22.22z"/>
		<path class="st0" d="M150.32,55.13c0,2.01-0.39,3.83-1.16,5.46c-0.77,1.63-1.86,3.02-3.28,4.19c-1.42,1.16-3.13,2.06-5.14,2.7
			c-2.01,0.64-4.25,0.95-6.73,0.95c-1.32,0-2.67-0.08-4.07-0.23c-1.4-0.16-2.77-0.37-4.14-0.65c-1.36-0.28-2.67-0.62-3.92-1.02
			c-1.25-0.4-2.38-0.86-3.38-1.37l2.41-7.23c1.09,0.36,2.16,0.69,3.2,0.99c1.04,0.3,2.07,0.56,3.1,0.79c1.03,0.22,2.06,0.4,3.1,0.52
			c1.04,0.12,2.1,0.18,3.2,0.18c2.1,0,3.72-0.44,4.85-1.32c1.14-0.88,1.71-2.13,1.71-3.73c0-0.8-0.19-1.53-0.57-2.18
			c-0.38-0.65-0.93-1.23-1.64-1.76c-0.71-0.52-1.57-1.01-2.58-1.46c-1-0.45-2.12-0.87-3.35-1.27c-2.05-0.69-3.91-1.46-5.56-2.31
			c-1.65-0.85-3.06-1.82-4.22-2.93c-1.16-1.1-2.06-2.35-2.7-3.75c-0.64-1.39-0.95-2.97-0.95-4.74c0-2.01,0.39-3.83,1.16-5.47
			c0.77-1.64,1.86-3.05,3.28-4.22c1.42-1.17,3.12-2.08,5.12-2.73c2-0.65,4.24-0.97,6.71-0.97c1.38,0,2.76,0.11,4.14,0.32
			c1.37,0.21,2.68,0.48,3.93,0.8c1.25,0.32,2.4,0.69,3.45,1.09c1.05,0.4,1.94,0.8,2.68,1.21l-1.87,7.27
			c-1.12-0.38-2.17-0.73-3.15-1.05c-0.98-0.32-1.94-0.6-2.88-0.84s-1.87-0.42-2.81-0.55s-1.91-0.2-2.91-0.2
			c-2.21,0-3.86,0.47-4.94,1.41c-1.08,0.94-1.62,2.14-1.62,3.62c0,0.71,0.13,1.38,0.4,1.99c0.27,0.61,0.69,1.19,1.27,1.72
			c0.58,0.54,1.33,1.03,2.24,1.49c0.91,0.46,2.03,0.9,3.35,1.32c2.54,0.8,4.72,1.66,6.53,2.58c1.81,0.92,3.28,1.93,4.42,3.05
			c1.14,1.12,1.98,2.36,2.51,3.73C150.05,51.87,150.32,53.42,150.32,55.13z"/>
		<path class="st0" d="M156.15,48.67v-7.57H175v7.57H156.15z"/>
		<path class="st0" d="M181.39,44.92c0-3.53,0.52-6.73,1.57-9.61c1.05-2.88,2.54-5.34,4.49-7.38c1.94-2.04,4.3-3.62,7.08-4.72
			c2.78-1.1,5.9-1.66,9.36-1.66c2.28,0,4.2,0.18,5.78,0.54c1.57,0.36,2.93,0.77,4.07,1.24l-1.71,6.76c-1.05-0.38-2.23-0.68-3.53-0.9
			c-1.31-0.22-2.7-0.33-4.17-0.33c-1.94,0-3.69,0.31-5.26,0.94c-1.56,0.63-2.89,1.59-3.98,2.9c-1.09,1.31-1.94,2.97-2.53,4.99
			c-0.59,2.02-0.89,4.44-0.89,7.25c0,2.81,0.3,5.24,0.9,7.28c0.6,2.04,1.46,3.72,2.56,5.04c1.1,1.32,2.44,2.29,4.02,2.93
			s3.32,0.95,5.24,0.95c1.81,0,3.46-0.18,4.96-0.55c1.5-0.37,2.81-0.78,3.95-1.22l1.57,6.8c-1.3,0.65-2.88,1.19-4.75,1.62
			s-4.16,0.65-6.86,0.65c-3.35,0-6.37-0.56-9.06-1.69c-2.69-1.13-4.98-2.72-6.88-4.77c-1.9-2.05-3.36-4.53-4.39-7.42
			C181.91,51.66,181.39,48.45,181.39,44.92z"/>
		<path class="st0" d="M250.63,55.13c0,2.01-0.39,3.83-1.16,5.46c-0.77,1.63-1.86,3.02-3.28,4.19c-1.42,1.16-3.13,2.06-5.14,2.7
			s-4.25,0.95-6.73,0.95c-1.32,0-2.67-0.08-4.07-0.23c-1.4-0.16-2.77-0.37-4.14-0.65c-1.36-0.28-2.67-0.62-3.92-1.02
			c-1.25-0.4-2.38-0.86-3.38-1.37l2.41-7.23c1.09,0.36,2.16,0.69,3.2,0.99c1.04,0.3,2.07,0.56,3.1,0.79c1.03,0.22,2.06,0.4,3.1,0.52
			c1.04,0.12,2.1,0.18,3.2,0.18c2.1,0,3.72-0.44,4.85-1.32c1.14-0.88,1.71-2.13,1.71-3.73c0-0.8-0.19-1.53-0.57-2.18
			c-0.38-0.65-0.93-1.23-1.64-1.76c-0.71-0.52-1.57-1.01-2.58-1.46c-1-0.45-2.12-0.87-3.35-1.27c-2.05-0.69-3.91-1.46-5.56-2.31
			c-1.65-0.85-3.06-1.82-4.22-2.93c-1.16-1.1-2.06-2.35-2.7-3.75c-0.64-1.39-0.95-2.97-0.95-4.74c0-2.01,0.39-3.83,1.16-5.47
			c0.77-1.64,1.86-3.05,3.28-4.22c1.42-1.17,3.12-2.08,5.12-2.73c2-0.65,4.24-0.97,6.71-0.97c1.38,0,2.76,0.11,4.14,0.32
			c1.37,0.21,2.68,0.48,3.93,0.8c1.25,0.32,2.4,0.69,3.45,1.09c1.05,0.4,1.94,0.8,2.68,1.21l-1.87,7.27
			c-1.12-0.38-2.17-0.73-3.15-1.05c-0.98-0.32-1.94-0.6-2.88-0.84c-0.94-0.23-1.88-0.42-2.81-0.55c-0.94-0.13-1.91-0.2-2.91-0.2
			c-2.21,0-3.86,0.47-4.94,1.41c-1.08,0.94-1.62,2.14-1.62,3.62c0,0.71,0.13,1.38,0.4,1.99c0.27,0.61,0.69,1.19,1.27,1.72
			c0.58,0.54,1.33,1.03,2.24,1.49c0.91,0.46,2.03,0.9,3.35,1.32c2.54,0.8,4.72,1.66,6.53,2.58c1.81,0.92,3.28,1.93,4.42,3.05
			c1.14,1.12,1.98,2.36,2.51,3.73C250.37,51.87,250.63,53.42,250.63,55.13z"/>
		<path class="st0" d="M283.75,58.25h-16.44l-3.08,9.51h-9.84l15.7-45.54h10.88l15.74,45.54h-9.84L283.75,58.25z M269.68,50.88
			h11.69l-5.86-17.95L269.68,50.88z"/>
	</g>
</g>
</svg>
